/* XPM */
static const char *currentpos[]={
"16 16 2 1",
"# c #000000",
". c None",
"................",
"................",
"................",
".#............#.",
".##..........##.",
".###........###.",
".####..##..####.",
".##############.",
".##############.",
".####..##..####.",
".###........###.",
".##..........##.",
".#............#.",
"................",
"................",
"................"};
