/* XPM */
static const char *iconA[]={
"16 16 3 1",
"  c #0080FF",
"# c #000000",
". c None",
"................",
"................",
"......###.......",
".....#   #......",
"....#  #  #.....",
"...#  #.#  #....",
"...# #...# #....",
"...# #...# #....",
"...# ##### #....",
"...#       #....",
"...# ##### #....",
"...# #...# #....",
"...###...###....",
"................",
"................",
"................"};
