/* XPM */
static const char *iconA[]={
"16 16 2 1",
". c None",
"# c #000000",
"................",
"................",
"................",
"......####......",
".....######.....",
"....##....##....",
"....##....##....",
"....##....##....",
"....##....##....",
"....########....",
"....########....",
"....##....##....",
"....##....##....",
"................",
"................",
"................"};
