/* XPM */
static const char *link_arrow[]={
"16 16 5 1",
". c None",
"b c #000000",
"# c #585858",
"c c #dcdcdc",
"a c #ffffff",
"................",
"................",
"................",
"................",
"................",
"................",
"................",
"................",
"########........",
"#aaaaaab........",
"#aabbbab........",
"#aac#bab........",
"#acbcbab........",
"#abcaaab........",
"#aaaaaab........",
"#bbbbbbb........"};
