/* XPM */
static const char *nextunsolved[]={
"16 16 3 1",
". c None",
"# c #000000",
"a c #ff0000",
"..############..",
"...##########...",
"....########....",
".....######.....",
"......####......",
"..############..",
"...##########...",
"....########....",
".....######.....",
"......####......",
"..aaaaaaaaaaaa..",
"...aaaaaaaaaa...",
"....aaaaaaaa....",
".....aaaaaa.....",
"......aaaa......",
".......aa......."};
