/* XPM */
static const char *nextunsolved[]={
"16 16 4 1",
". c None",
"  c #0080ff",
"# c #000000",
"a c #ff0000",
"..############..",
"...#        #...",
"....#      #....",
".....#    #.....",
"......#  #......",
"..############..",
"...#        #...",
"....#      #....",
".....#    #.....",
"......#  #......",
"..############..",
"...#aaaaaaaa#...",
"....#aaaaaa#....",
".....#aaaa#.....",
"......#aa#......",
".......##......."};
