/* XPM */
static const char *not_there_pm[]={
"16 16 3 1",
". c None",
"# c #000000",
"a c #000000",
"################",
"#aaaaaaaaaaaaaa#",
"#aaaaaaaaaaaaaa#",
"#aaaaaaaaaaaaaa#",
"#aaaaaaaaaaaaaa#",
"#aaaaaaaaaaaaaa#",
"#aaaaaaaaaaaaaa#",
"#aaaaaaaaaaaaaa#",
"#aaaaaaaaaaaaaa#",
"#aaaaaaaaaaaaaa#",
"#aaaaaaaaaaaaaa#",
"#aaaaaaaaaaaaaa#",
"#aaaaaaaaaaaaaa#",
"#aaaaaaaaaaaaaa#",
"#aaaaaaaaaaaaaa#",
"################"};
