/* XPM */
static const char *not_everywhere_pm[]={
"16 16 3 1",
". c None",
"# c #000000",
"a c #c0c000",
"################",
"#aaaaaaaaaaaaaa#",
"#aaaaaaaaaaaaaa#",
"#aaaaaaaaaaaaaa#",
"#aaaaaaaaaaaaaa#",
"#aaaaaaaaaaaaaa#",
"#aaaaaaaaaaaaaa#",
"#aaaaaaaaaaaaaa#",
"#aaaaaaaaaaaaaa#",
"#aaaaaaaaaaaaaa#",
"#aaaaaaaaaaaaaa#",
"#aaaaaaaaaaaaaa#",
"#aaaaaaaaaaaaaa#",
"#aaaaaaaaaaaaaa#",
"#aaaaaaaaaaaaaa#",
"################"};

