/* XPM */
static const char *prevunsolved[]={
"16 16 4 1",
"  c #0080ff",
"# c #000000",
"a c #ff0000",
". c None",
".......##.......",
"......#aa#......",
".....#aaaa#.....",
"....#aaaaaa#....",
"...#aaaaaaaa#...",
"..############..",
"......#  #......",
".....#    #.....",
"....#      #....",
"...#        #...",
"..############..",
"......#  #......",
".....#    #.....",
"....#      #....",
"...#        #...",
"..############.."};
