/* XPM */
static const char *prevunsolved[]={
"16 16 3 1",
". c None",
"a c #000000",
"# c #ff0000",
".......##.......",
"......####......",
".....######.....",
"....########....",
"...##########...",
"..############..",
"......aaaa......",
".....aaaaaa.....",
"....aaaaaaaa....",
"...aaaaaaaaaa...",
"..aaaaaaaaaaaa..",
"......aaaa......",
".....aaaaaa.....",
"....aaaaaaaa....",
"...aaaaaaaaaa...",
"..aaaaaaaaaaaa.."};
