/* XPM */
static const char *reloadIcon[]={
"16 16 55 1",
". c None",
"e c #25502a",
"# c #25512b",
"d c #25522b",
"g c #26552c",
"c c #27562e",
"n c #27582f",
"b c #28592e",
"M c #285930",
"a c #295a2f",
"q c #295a30",
"G c #295c31",
"t c #2a5e31",
"y c #2b6635",
"U c #2b6636",
"Q c #2f703a",
"H c #327b3d",
"0 c #36843f",
"W c #388943",
"u c #3f7046",
"r c #42764a",
"f c #44754b",
"A c #488653",
"N c #50995b",
"K c #529d5f",
"J c #529f60",
"m c #53885c",
"l c #55a161",
"B c #57a863",
"R c #5aaa66",
"I c #5aad69",
"v c #5baa67",
"X c #5cb16b",
"o c #5db469",
"k c #5eb56c",
"z c #5eb66b",
"s c #5fb26d",
"V c #64b171",
"Y c #64c274",
"j c #69c779",
"Z c #6dc97d",
"p c #729a77",
"O c #73c782",
"i c #7ace89",
"w c #7bce89",
"C c #7ecb8b",
"L c #80d191",
"h c #80d193",
"S c #8dd49b",
"P c #95d8a1",
"D c #a7ddb1",
"x c #bde3c2",
"T c #c0e5c5",
"E c #daf0de",
"F c #f9fdf9",
"................",
"..#abcde#df.....",
"..ghhhijklm.....",
"..nhoooooop.....",
"..qho....rso....",
"..tho...uvwxo...",
"..yhz..ABCDEFo..",
"gGHhIJJAAKLooo..",
"MNOPEFo..Qho....",
".eRSTo...Uho....",
"..eV.....Uho....",
"...W.....Qho....",
"....nXYZihho....",
"....0ooooooo....",
"................",
"................"};
