/* XPM */
static const char *showwhitespacechars[]={
"16 16 2 1",
". c None",
"# c #000040",
"................",
"................",
"................",
"................",
"................",
"................",
"................",
"................",
"................",
"................",
".####.####.####.",
".####.####.####.",
"................",
"................",
"................",
"................"};
