/* XPM */
static const char *showfilesonlyinc[]={
"16 16 3 1",
". c None",
"# c #000000",
"a c #00ff00",
"................",
"................",
"................",
"................",
"................",
"################",
"###########aaaa#",
"###########aaaa#",
"###########aaaa#",
"###########aaaa#",
"################",
"................",
"................",
"................",
"................",
"................"};
