/* XPM */
static const char *startmerge[]={
"16 16 6 1",
". c None",
"# c #000000",
"b c #0000ff",
"c c #00ffff",
"d c #ff0000",
"a c #ffff00",
".......##.......",
"......#aa#......",
"......#aa#......",
"...b.b.##.b.b...",
"...bb......bb...",
"...bbb....bbb...",
".##..........##.",
"#cc#........#cc#",
"#cc#........#cc#",
".##.b.b..b.b.##.",
".....bb..bb.....",
"....bbb..bbb....",
".......##.......",
"......#dd#......",
"......#dd#......",
".......##......."};
