/* XPM */
static const char *downend[]={
"16 16 2 1",
"# c #000000",
". c None",
"................",
"................",
"................",
"................",
"................",
"..############..",
"...##########...",
"....########....",
".....######.....",
"......####......",
".......##.......",
"..############..",
"................",
"................",
"................",
"................"};
