/* XPM */
static const char *gotoline[]={
"16 16 2 1",
". c None",
"# c #000040",
"................",
"................",
"................",
"................",
"........#...##..",
"...#...##..#..#.",
"....#...#.....#.",
"######..#....#..",
"....#...#...#...",
"...#....#..#....",
".......###.####.",
"................",
"................",
"................",
"................",
"................"};
