/* XPM */
static const char *showlinenumbers[]={
"16 16 2 1",
". c None",
"# c #000040",
"................",
"................",
"................",
"................",
"...#...##..###..",
"..##..#..#....#.",
"...#.....#....#.",
"...#....#...##..",
"...#...#......#.",
"...#..#.......#.",
"..###.####.###..",
"................",
"................",
"................",
"................",
"................"};
