/* XPM */
static const char *upend[]={
"16 16 3 1",
"  c #0080ff",
"# c #000000",
". c None",
"................",
"................",
"................",
"................",
"..############..",
".......##.......",
"......#  #......",
".....#    #.....",
"....#      #....",
"...#        #...",
"..############..",
"................",
"................",
"................",
"................",
"................"};
