/* XPM */
static const char *autoadvance[] = {
/* columns rows colors chars-per-pixel */
"16 16 3 1",
". c #0080FF",
"# c #000000",
"  c None",
/* pixels */
" ##  # # ###  # ",
"#  # # #  #  # #",
"#  # # #  #  # #",
"#### # #  #  # #",
"#  # ###  #   # ",
"                ",
"                ",
"    ########    ",
"     #....#     ",
"      #..#      ",
"       ##       ",
"    ########    ",
"     #....#     ",
"      #..#      ",
"       ##       ",
"                "
};
