/* XPM */
static const char *showfilesonlyina[]={
"16 16 4 1",
"# c None",
"a c None",
". c #000000",
"b c #00ff00",
"...........##aaa",
".bbbb......##aaa",
".bbbb......##aaa",
".bbbb......##aaa",
".bbbb......##aaa",
"...........##aaa",
"aaaaaaaaaaaaaaaa",
"................",
"aaaaaaaaaaaaaaaa",
"................",
".bbbb...........",
".bbbb...........",
".bbbb...........",
".bbbb...........",
"................",
"aaaaaaaaaaaaaaaa"};
