/* XPM */
static const char *showequalfiles[]={
"16 16 4 1",
"# c None",
"a c None",
". c #000000",
"b c #00ff00",
"...........##aaa",
".bbbb.bbbb.##aaa",
".bbbb.bbbb.##aaa",
".bbbb.bbbb.##aaa",
".bbbb.bbbb.##aaa",
"...........##aaa",
"aaaaaaaaaaaaaaaa",
"................",
"aaaaaaaaaaaaaaaa",
"................",
".bbbb.bbbb.bbbb.",
".bbbb.bbbb.bbbb.",
".bbbb.bbbb.bbbb.",
".bbbb.bbbb.bbbb.",
"................",
"aaaaaaaaaaaaaaaa"};
